<?xml version="1.0" encoding="UTF-8"?>
<svg version="1.1" xmlns="http://www.w3.org/2000/svg" width="1024" height="407">
<path d="M0 0 C21.12 0 42.24 0 64 0 C64.01458252 5.98415039 64.02916504 11.96830078 64.04418945 18.13378906 C64.09462633 37.95097539 64.16108963 57.76808434 64.23571491 77.58519363 C64.28055222 89.59503549 64.3199943 101.60484848 64.34643555 113.61474609 C64.36951377 124.09075462 64.40302025 134.5666709 64.44870156 145.04260612 C64.47250205 150.58209046 64.49131669 156.12148419 64.49761391 161.66101837 C64.50372495 166.89117022 64.5239379 172.12109061 64.55427551 177.35115623 C64.56296042 179.25523194 64.56679855 181.15933802 64.56500816 183.06343269 C64.54798282 209.56093342 67.73817459 236.63370466 86.5859375 256.7421875 C93.26888499 262.99258175 101.33192401 266.37941889 110 269 C111.11375 269.3403125 111.11375 269.3403125 112.25 269.6875 C129.48477985 273.99619496 148.40322936 271.15723814 163.87109375 262.87890625 C180.01168468 253.18649147 186.58256475 236.54703447 191 219 C208.08521968 148.01498013 194.63125634 73.01124438 195 0 C344.82 0 494.64 0 649 0 C649 16.5 649 33 649 50 C565.51 50 482.02 50 396 50 C396 138.11 396 226.22 396 317 C374.88 317 353.76 317 332 317 C332 228.89 332 140.78 332 50 C307.91 50 283.82 50 259 50 C259.04640625 61.83746094 259.0928125 73.67492187 259.140625 85.87109375 C259.16108621 93.41341501 259.18051028 100.95571588 259.1953125 108.49804688 C259.21894755 120.4443253 259.24656694 132.39049 259.30175781 144.33666992 C259.3419528 153.04119799 259.36750935 161.74563284 259.37635398 170.45025116 C259.38151419 175.04822957 259.39341419 179.64594157 259.42292023 184.24383354 C259.6420848 219.81953092 258.04880132 254.9365591 235 284 C234.39542969 284.77085937 233.79085937 285.54171875 233.16796875 286.3359375 C213.99611631 309.34216042 182.0280177 319.18889784 153.12109375 321.8190918 C145.50635357 322.26046558 137.87538886 322.24496899 130.25 322.25 C129.33370819 322.25067474 128.41741638 322.25134949 127.47335815 322.25204468 C90.72521673 322.20903525 55.56366193 314.99351477 27.8125 289.3125 C4.64123483 264.91912169 -0.34485636 231.34974885 -0.22705078 199.12353516 C-0.22648566 196.94415797 -0.2268052 194.76478041 -0.22793579 192.58540344 C-0.22850636 186.70828684 -0.21680026 180.83125294 -0.20278788 174.95415545 C-0.19023087 168.79759682 -0.18910611 162.64103601 -0.18673706 156.48446655 C-0.18053684 144.84368618 -0.16414585 133.20294367 -0.14403808 121.56217992 C-0.12163356 108.30213702 -0.11067422 95.04209225 -0.10064721 81.78203511 C-0.07977827 54.52133096 -0.04312034 27.26067866 0 0 Z " fill="#19161A" transform="translate(9,20)"/>
<path d="M0 0 C78.54 0 157.08 0 238 0 C238 16.83 238 33.66 238 51 C180.58 51 123.16 51 64 51 C64 117.99 64 184.98 64 254 C42.88 254 21.76 254 0 254 C0 170.18 0 86.36 0 0 Z " fill="#FECC00" transform="translate(419,83)"/>
<path d="M0 0 C124.86363636 0 124.86363636 0 141.0859375 14.9296875 C153.23571478 28.07128334 155.67272143 43.57004337 155.13183594 60.69140625 C154.38123826 73.83520559 147.6503769 85.25942295 138 94 C130.56292867 99.33025226 122.71525911 102.42448225 114 105 C111.99790983 105.66036308 109.99733286 106.32538463 108 107 C108.53367187 107.32871094 109.06734375 107.65742188 109.6171875 107.99609375 C128.66807251 120.15833695 139.32351875 138.24077915 151 157 C151.93327971 158.49368585 152.86684751 159.98719175 153.80078125 161.48046875 C155.03659172 163.45687237 156.27139545 165.43383602 157.50146484 167.41381836 C159.50728112 170.63832125 161.5386487 173.84269297 163.61328125 177.0234375 C164.03504639 177.67119141 164.45681152 178.31894531 164.89135742 178.98632812 C165.69342292 180.21426771 166.49937206 181.43968236 167.30981445 182.66210938 C170 186.78032743 170 186.78032743 170 189 C163.57793146 189.25431993 157.15716637 189.42897096 150.73120117 189.54931641 C148.54743946 189.5994955 146.36401193 189.66765942 144.18139648 189.75439453 C126.03914961 190.45710175 126.03914961 190.45710175 121.11157227 186.93603516 C119.29406931 184.34639042 118.12406724 181.94805182 117 179 C116.28972656 177.95070313 115.57945312 176.90140625 114.84765625 175.8203125 C114.25855469 174.93085938 113.66945313 174.04140625 113.0625 173.125 C112.38445312 172.1040625 111.70640625 171.083125 111.0078125 170.03125 C109.75223094 168.13566383 108.49696974 166.23986538 107.2421875 164.34375 C105.17063301 161.22296661 103.08860114 158.10938663 101 155 C100.4539209 154.18644043 99.9078418 153.37288086 99.34521484 152.53466797 C84.0849964 127.06357481 84.0849964 127.06357481 60 112 C53.07 111.67 46.14 111.34 39 111 C39 136.74 39 162.48 39 189 C26.13 189 13.26 189 0 189 C0 126.63 0 64.26 0 0 Z M39 33 C39 48.51 39 64.02 39 80 C46.610625 80.04125 54.22125 80.0825 62.0625 80.125 C64.43187744 80.14320801 66.80125488 80.16141602 69.24243164 80.18017578 C90.86476064 81.07691079 90.86476064 81.07691079 109.828125 72.5 C114.67089702 67.3911416 115.73551136 61.92078601 116 55 C115.56397499 48.78228336 114.12271116 43.80982969 110 39 C101.798304 32.4386432 93.69290978 32.72040177 83.62890625 32.8046875 C81.71270729 32.80893234 81.71270729 32.80893234 79.75779724 32.81326294 C76.38266422 32.82252993 73.00780796 32.84045934 69.63275146 32.8626709 C66.18032245 32.88323137 62.72786385 32.89239639 59.27539062 32.90234375 C52.51677261 32.922646 45.75863519 32.96180363 39 33 Z " fill="#19161A" transform="translate(840,147)"/>
<path d="M0 0 C52.8 0 105.6 0 160 0 C160 16.5 160 33 160 50 C127 50 94 50 60 50 C60 95.87 60 141.74 60 189 C40.2 189 20.4 189 0 189 C0 126.63 0 64.26 0 0 Z " fill="#19171B" transform="translate(497,148)"/>
<path d="M0 0 C113.25220588 0 113.25220588 0 130.6875 16.25 C143.97265209 30.27321609 145.47534728 46.98936053 145.27734375 65.3046875 C144.86276837 80.2500267 138.63281957 91.85715959 128.4765625 102.67578125 C110.29515837 119.73877093 85.22403571 118.30415866 62 118.125 C54.41 118.08375 46.82 118.0425 39 118 C39 141.43 39 164.86 39 189 C26.13 189 13.26 189 0 189 C0 126.63 0 64.26 0 0 Z M39 33 C39 50.49 39 67.98 39 86 C70.44597057 88.23751176 70.44597057 88.23751176 98.82421875 77.43359375 C103.71195679 72.33283081 106.04001737 66.02067771 106.375 59 C105.9946164 51.33146666 103.27771591 45.29883908 98.02734375 39.7265625 C90.28693534 33.13453838 80.9228591 32.84572629 71.2265625 32.90234375 C70.40696045 32.90335083 69.5873584 32.90435791 68.74291992 32.90539551 C65.70359889 32.91059742 62.66429793 32.92455853 59.625 32.9375 C52.81875 32.958125 46.0125 32.97875 39 33 Z " fill="#19161A" transform="translate(684,147)"/>
<path d="M0 0 C2.536875 -0.04125 5.07375 -0.0825 7.6875 -0.125 C8.47729248 -0.14320801 9.26708496 -0.16141602 10.08081055 -0.18017578 C14.18482879 -0.21234788 17.35767723 0.06733894 21 2 C23 4 23 4 23.375 7.8125 C23.29926621 11.97028498 21.96605135 14.03394865 19 17 C20.98 19.97 22.96 22.94 25 26 C28.89634941 17.4280313 32.43809992 8.7146488 36 0 C37.98 0 39.96 0 42 0 C53 23.09621993 53 23.09621993 53 28 C50.69 28 48.38 28 46 28 C45.505 25.03 45.505 25.03 45 22 C41.37 22.33 37.74 22.66 34 23 C33.34 24.65 32.68 26.3 32 28 C27.20138187 28.59899533 22.77290396 28.8844526 18 28 C15.47391505 25.60619315 14.0974798 23.37758487 12.52734375 20.28515625 C10.97696117 17.38329145 10.97696117 17.38329145 6 17 C6 20.63 6 24.26 6 28 C4.02 28 2.04 28 0 28 C0 18.76 0 9.52 0 0 Z M6 6 C6 7.98 6 9.96 6 12 C9.3 12 12.6 12 16 12 C16.38218767 10.34385343 16.71395102 8.67542976 17 7 C15.96593327 5.74050951 15.96593327 5.74050951 13.71484375 5.90234375 C12.79832031 5.91394531 11.88179687 5.92554688 10.9375 5.9375 C10.01839844 5.94652344 9.09929688 5.95554687 8.15234375 5.96484375 C7.44207031 5.97644531 6.73179687 5.98804688 6 6 Z M38 9 C37.34 11.64 36.68 14.28 36 17 C37.98 17 39.96 17 42 17 C41.47731534 14.23723823 40.89130413 11.6739124 40 9 C39.34 9 38.68 9 38 9 Z " fill="#19161A" transform="translate(700,359)"/>
<path d="M0 0 C2.536875 -0.04125 5.07375 -0.0825 7.6875 -0.125 C8.47729248 -0.14320801 9.26708496 -0.16141602 10.08081055 -0.18017578 C14.17918043 -0.2123036 17.36119489 0.06709974 21 2 C23.13534693 4.62065305 22.99712086 6.08061585 22.875 9.5 C22 13 22 13 18 17 C20.31 19.97 22.62 22.94 25 26 C25.29769287 25.2479126 25.59538574 24.4958252 25.90209961 23.72094727 C27.24456006 20.33373158 28.59097474 16.94810172 29.9375 13.5625 C30.40607422 12.37849609 30.87464844 11.19449219 31.35742188 9.97460938 C32.0293457 8.28754883 32.0293457 8.28754883 32.71484375 6.56640625 C33.12855225 5.52427979 33.54226074 4.48215332 33.96850586 3.40844727 C35 1 35 1 36 0 C37.99958364 -0.04080783 40.00045254 -0.04254356 42 0 C43.56878516 3.82599998 45.13530785 7.65291737 46.69970703 11.48071289 C47.23260844 12.78370397 47.76613573 14.08643926 48.30029297 15.38891602 C49.0664113 17.25730664 49.83011892 19.12668519 50.59375 20.99609375 C51.05458984 22.12200928 51.51542969 23.2479248 51.99023438 24.40795898 C53 27 53 27 53 28 C50.69 28 48.38 28 46 28 C45.34 26.02 44.68 24.04 44 22 C40.37 22 36.74 22 33 22 C32.505 24.475 32.505 24.475 32 27 C29.56372458 29.43627542 24.5813194 28.6882811 21.375 28.6953125 C17.13924688 27.82266892 16.00498837 26.47609249 13.4375 23.0625 C12.85871094 22.14597656 12.27992188 21.22945313 11.68359375 20.28515625 C10.0513348 17.56148942 10.0513348 17.56148942 6 17 C6 20.63 6 24.26 6 28 C4.02 28 2.04 28 0 28 C0 18.76 0 9.52 0 0 Z M6 6 C6 7.98 6 9.96 6 12 C7.45792884 12.05399736 8.91642712 12.09279177 10.375 12.125 C11.59316406 12.15980469 11.59316406 12.15980469 12.8359375 12.1953125 C15.21342243 12.21370051 15.21342243 12.21370051 17 10 C16.67 8.68 16.34 7.36 16 6 C12.7 6 9.4 6 6 6 Z M38 8 C37.01 10.97 36.02 13.94 35 17 C37.31 17 39.62 17 42 17 C41.01 14.03 40.02 11.06 39 8 C38.67 8 38.34 8 38 8 Z " fill="#19161A" transform="translate(907,359)"/>
<path d="M0 0 C2.536875 -0.04125 5.07375 -0.0825 7.6875 -0.125 C8.47729248 -0.14320801 9.26708496 -0.16141602 10.08081055 -0.18017578 C14.17918043 -0.2123036 17.36119489 0.06709974 21 2 C23.13534693 4.62065305 22.99712086 6.08061585 22.875 9.5 C21.91534623 13.33861507 20.83770599 14.40161861 18 17 C18.5053125 17.71027344 19.010625 18.42054688 19.53125 19.15234375 C20.1809375 20.07144531 20.830625 20.99054688 21.5 21.9375 C22.1496875 22.85402344 22.799375 23.77054687 23.46875 24.71484375 C25 27 25 27 25 28 C19.8988715 28.79155442 19.8988715 28.79155442 17 28 C15.12041226 25.85127961 13.84573296 23.68825307 12.51953125 21.1640625 C10.89342438 18.42914104 10.89342438 18.42914104 6 17 C6 20.63 6 24.26 6 28 C4.02 28 2.04 28 0 28 C0 18.76 0 9.52 0 0 Z M6 6 C6 7.98 6 9.96 6 12 C8.97 12 11.94 12 15 12 C15.66 10.68 16.32 9.36 17 8 C16.67 7.34 16.34 6.68 16 6 C12.7 6 9.4 6 6 6 Z " fill="#1A161A" transform="translate(125,359)"/>
<path d="M0 0 C6 0 6 0 7.59912109 1.46875 C8.18040771 2.47421875 8.18040771 2.47421875 8.7734375 3.5 C9.20527344 4.221875 9.63710938 4.94375 10.08203125 5.6875 C10.50871094 6.450625 10.93539062 7.21375 11.375 8 C11.82488281 8.763125 12.27476562 9.52625 12.73828125 10.3125 C13.8453284 12.19683557 14.92532412 14.09701663 16 16 C16.33 10.72 16.66 5.44 17 0 C18.65 0 20.3 0 22 0 C22 9.24 22 18.48 22 28 C20.02 28 18.04 28 16 28 C14.03061502 25.63914706 12.61827367 23.63100599 11.125 21 C10.7228125 20.33226562 10.320625 19.66453125 9.90625 18.9765625 C8.91789927 17.32931129 7.95628934 15.66606855 7 14 C6.67 18.62 6.34 23.24 6 28 C4.02 28 2.04 28 0 28 C0 18.76 0 9.52 0 0 Z " fill="#19161A" transform="translate(962,359)"/>
<path d="M0 0 C6 0 6 0 7.50732422 1.37695312 C7.8529541 2.00537109 8.19858398 2.63378906 8.5546875 3.28125 C8.94140625 3.95800781 9.328125 4.63476562 9.7265625 5.33203125 C10.10554688 6.04746094 10.48453125 6.76289063 10.875 7.5 C11.2771875 8.21542969 11.679375 8.93085938 12.09375 9.66796875 C13.08278598 11.43410442 14.04412455 13.21569916 15 15 C15.33 10.05 15.66 5.1 16 0 C17.98 0 19.96 0 22 0 C22 9.24 22 18.48 22 28 C20.02 28 18.04 28 16 28 C13.98828125 25.98828125 13.98828125 25.98828125 12.3125 23.3125 C11.75175781 22.44238281 11.19101562 21.57226562 10.61328125 20.67578125 C9.07195047 18.11933674 7.53584602 15.55974336 6 13 C5.67 17.95 5.34 22.9 5 28 C3.35 28 1.7 28 0 28 C0 18.76 0 9.52 0 0 Z " fill="#19161A" transform="translate(384,359)"/>
<path d="M0 0 C3 1.125 3 1.125 5 3 C6.3125 6.1875 6.3125 6.1875 7 9 C1.46772842 9.37720034 1.46772842 9.37720034 -0.9375 7.4375 C-3.09696963 5.60659449 -3.09696963 5.60659449 -6.75 6.3125 C-7.8225 6.539375 -8.895 6.76625 -10 7 C-12.50213673 11.70990444 -12.22369864 14.94204562 -11 20 C-8.98257918 22.26051003 -8.98257918 22.26051003 -6 23 C-2.26906622 22.77752165 -2.26906622 22.77752165 1 22 C1 20.68 1 19.36 1 18 C-0.98 18 -2.96 18 -5 18 C-5 16.35 -5 14.7 -5 13 C-1.04 13 2.92 13 7 13 C7 16.96 7 20.92 7 25 C0.24868775 28.79021039 -3.96784689 30.09346525 -11.6875 28 C-16.01795622 25.38538492 -17.56104519 22.78795083 -19 18 C-19.87003261 12.71059721 -19.03429722 8.45030258 -16 4 C-11.09075705 -0.55003005 -6.38444654 -0.86333918 0 0 Z " fill="#19161A" transform="translate(512,359)"/>
<path d="M0 0 C14 0 14 0 20 3 C23.83011275 7.22633131 24.290334 11.2118234 24.21875 16.71484375 C23.8268445 20.80885661 22.23044578 23.69880359 19.4375 26.65234375 C15.7710299 28.67947866 12.35867308 28.3193478 8.25 28.1875 C5.5275 28.125625 2.805 28.06375 0 28 C0 18.76 0 9.52 0 0 Z M6 6 C6 11.61 6 17.22 6 23 C10.50901363 23.17957899 10.50901363 23.17957899 15 23 C18.09295516 19.90704484 17.95591267 16.2544269 18 12 C17.04783995 8.67154661 17.04783995 8.67154661 15 6 C11.99668982 5.85806663 9.00782866 5.95763622 6 6 Z " fill="#19171A" transform="translate(647,359)"/>
<path d="M0 0 C3.23300086 1.47593517 5.72160787 3.26592945 8 6 C9.94449649 11.83348947 9.96683423 17.9175878 7.375 23.5 C3.75375204 27.31183995 0.77284522 28.77436515 -4.4375 29.4375 C-8.76173864 28.90645315 -11.64889905 27.77959536 -15 25 C-18.4016598 20.28156867 -18.72710557 15.62496949 -18 10 C-16.69056816 6.14445069 -15.39081791 4.35359716 -12.375 1.625 C-8.07282423 -0.44641796 -4.69411113 -0.72884535 0 0 Z M-10 7 C-12.7308954 11.4214497 -12.02323896 15.11993725 -11 20 C-9.39652878 22.48538038 -8.36365145 22.87878285 -5.5625 23.8125 C-2.61368215 24.02826716 -1.41503144 23.66553893 1 22 C3.6749022 17.9876467 3.81769538 14.71620266 3 10 C0.93580788 6.85045905 0.93580788 6.85045905 -2 5 C-6.40499207 4.96652709 -6.40499207 4.96652709 -10 7 Z " fill="#19161A" transform="translate(428,359)"/>
<path d="M0 0 C14 0 14 0 20 3 C23.8286084 8.1048112 23.69196499 13.87517478 23 20 C21.41995698 23.79210324 19.54675106 25.95601197 16 28 C13.14790436 28.21476624 10.58452025 28.28440423 7.75 28.1875 C5.1925 28.125625 2.635 28.06375 0 28 C0 18.76 0 9.52 0 0 Z M6 6 C6 11.61 6 17.22 6 23 C13.3278141 23.7781814 13.3278141 23.7781814 16 21.5625 C17.82687297 16.88113802 17.82687297 12.11886198 16 7.4375 C13.3278141 5.2218186 13.3278141 5.2218186 6 6 Z " fill="#19161A" transform="translate(244,359)"/>
<path d="M0 0 C3.21315493 2.82368161 4.88144802 5.47768542 5.4609375 9.75 C5.45320312 10.760625 5.44546875 11.77125 5.4375 12.8125 C5.44523438 13.823125 5.45296875 14.83375 5.4609375 15.875 C4.82499494 20.56351769 2.91228936 23.0812859 -0.625 26.125 C-4.66761915 28.18444749 -7.49639712 28.5393871 -11.9375 27.8125 C-15.45509342 26.55147594 -17.36885779 25.49879232 -19.75 22.625 C-22.42174128 16.29719171 -22.45284818 11.1409558 -20 4.80078125 C-16.01954512 -2.64793763 -7.06443762 -2.85583648 0 0 Z M-13.9375 5.8125 C-15.94682913 10.01611742 -16.22742747 13.81587432 -14.9375 18.25 C-12.44453747 21.44410825 -10.94092562 22.25202041 -6.9375 22.8125 C-3.99299106 21.50382936 -2.39048569 20.71847137 -0.9375 17.8125 C-0.26653691 12.93363982 -0.21257637 9.7992016 -3.1875 5.75 C-7.0621287 3.02014796 -10.11153967 3.1806292 -13.9375 5.8125 Z " fill="#19161A" transform="translate(836.9375,360.1875)"/>
<path d="M0 0 C14 0 14 0 20 3 C23.8286084 8.1048112 23.69196499 13.87517478 23 20 C21.41995698 23.79210324 19.54675106 25.95601197 16 28 C13.14790436 28.21476624 10.58452025 28.28440423 7.75 28.1875 C5.1925 28.125625 2.635 28.06375 0 28 C0 18.76 0 9.52 0 0 Z M6 6 C6 11.61 6 17.22 6 23 C13.2307732 23.6732417 13.2307732 23.6732417 15.9765625 21.84375 C17.3830341 19.30995384 17.39828485 17.3873216 17.375 14.5 C17.38273438 13.5409375 17.39046875 12.581875 17.3984375 11.59375 C17.15890116 9.03501592 17.15890116 9.03501592 15.9765625 7.15625 C13.2307732 5.3267583 13.2307732 5.3267583 6 6 Z " fill="#19161A" transform="translate(789,359)"/>
<path d="M0 0 C3.23300086 1.47593517 5.72160787 3.26592945 8 6 C9.94449649 11.83348947 9.96683423 17.9175878 7.375 23.5 C3.72938546 27.33748898 0.7645957 28.81093617 -4.5 29.375 C-9.37469721 28.85271101 -12.59348683 27.64901545 -15.8125 23.875 C-17.99495777 18.59115488 -18.29646465 13.8084344 -17.375 8.1875 C-14.00185241 0.3679306 -7.70319718 -0.76097442 0 0 Z M-11 9 C-12.21406168 12.95602411 -12.3780477 15.9770474 -10.9375 19.875 C-8.45108763 22.60203292 -6.61335452 23.33632264 -3 24 C0.37840013 22.96771107 0.97925904 22.03111143 3 19 C3.54566326 15.93279809 3.52686417 13.06979022 3 10 C0.6933477 6.77068679 -0.66575724 5.29288256 -4.5625 4.4375 C-7.92752988 5.21404536 -9.0142318 6.16318828 -11 9 Z " fill="#1A161A" transform="translate(481,359)"/>
<path d="M0 0 C14 0 14 0 19 3 C22.7710108 7.30972663 23.29091611 11.16707398 23.21875 16.71484375 C22.82604338 20.81722539 21.23590641 23.71865585 18.40625 26.65234375 C14.93318239 28.59748714 11.61047917 28.31947887 7.75 28.1875 C5.1925 28.125625 2.635 28.06375 0 28 C0 18.76 0 9.52 0 0 Z M6 6 C6 11.61 6 17.22 6 23 C13.3278141 23.7781814 13.3278141 23.7781814 16 21.5625 C17.82687297 16.88113802 17.82687297 12.11886198 16 7.4375 C13.3278141 5.2218186 13.3278141 5.2218186 6 6 Z " fill="#19171A" transform="translate(189,359)"/>
<path d="M0 0 C6 0 6 0 7.59912109 1.56054688 C7.98664551 2.27275391 8.37416992 2.98496094 8.7734375 3.71875 C9.20527344 4.48574219 9.63710938 5.25273437 10.08203125 6.04296875 C10.50871094 6.85378906 10.93539062 7.66460937 11.375 8.5 C12.04982422 9.71623047 12.04982422 9.71623047 12.73828125 10.95703125 C13.84592076 12.96020909 14.92568302 14.9787554 16 17 C16.33 11.39 16.66 5.78 17 0 C18.65 0 20.3 0 22 0 C22 9.24 22 18.48 22 28 C20.02 28 18.04 28 16 28 C13.98828125 25.98828125 13.98828125 25.98828125 12.3125 23.3125 C11.75175781 22.44238281 11.19101562 21.57226562 10.61328125 20.67578125 C9.07195047 18.11933674 7.53584602 15.55974336 6 13 C5.67 17.95 5.34 22.9 5 28 C3.35 28 1.7 28 0 28 C0 18.76 0 9.52 0 0 Z " fill="#19161A" transform="translate(36,359)"/>
<path d="M0 0 C6.93 0 13.86 0 21 0 C21 1.98 21 3.96 21 6 C16.05 6 11.1 6 6 6 C6 7.65 6 9.3 6 11 C10.62 11 15.24 11 20 11 C20 12.65 20 14.3 20 16 C15.38 16 10.76 16 6 16 C6 18.31 6 20.62 6 23 C11.28 23 16.56 23 22 23 C22 24.65 22 26.3 22 28 C14.74 28 7.48 28 0 28 C0 18.76 0 9.52 0 0 Z " fill="#1A171B" transform="translate(271,359)"/>
<path d="M0 0 C6.93 0 13.86 0 21 0 C21 1.98 21 3.96 21 6 C16.05 6 11.1 6 6 6 C6 7.65 6 9.3 6 11 C10.62 11 15.24 11 20 11 C20 12.65 20 14.3 20 16 C15.38 16 10.76 16 6 16 C6 18.31 6 20.62 6 23 C10.95 23 15.9 23 21 23 C21 24.65 21 26.3 21 28 C14.07 28 7.14 28 0 28 C0 18.76 0 9.52 0 0 Z " fill="#1A171A" transform="translate(675,359)"/>
<path d="M0 0 C6.93 0 13.86 0 21 0 C21 1.98 21 3.96 21 6 C16.05 6 11.1 6 6 6 C6 7.65 6 9.3 6 11 C10.62 11 15.24 11 20 11 C20 12.65 20 14.3 20 16 C15.38 16 10.76 16 6 16 C6 18.31 6 20.62 6 23 C10.95 23 15.9 23 21 23 C21 24.65 21 26.3 21 28 C14.07 28 7.14 28 0 28 C0 18.76 0 9.52 0 0 Z " fill="#1A171A" transform="translate(622,359)"/>
<path d="M0 0 C6.6 0 13.2 0 20 0 C20 1.98 20 3.96 20 6 C15.38 6 10.76 6 6 6 C6 7.65 6 9.3 6 11 C10.29 11 14.58 11 19 11 C19 12.65 19 14.3 19 16 C14.71 16 10.42 16 6 16 C6 18.31 6 20.62 6 23 C10.95 23 15.9 23 21 23 C21 24.65 21 26.3 21 28 C14.07 28 7.14 28 0 28 C0 18.76 0 9.52 0 0 Z " fill="#1A171B" transform="translate(331,359)"/>
<path d="M0 0 C2.28372703 1.39698703 2.89429268 2.60871893 3.80078125 5.1015625 C3.80078125 6.0915625 3.80078125 7.0815625 3.80078125 8.1015625 C0.92578125 8.2890625 0.92578125 8.2890625 -2.19921875 8.1015625 C-2.85921875 7.1115625 -3.51921875 6.1215625 -4.19921875 5.1015625 C-7.28287746 4.8513468 -7.28287746 4.8513468 -10.19921875 5.1015625 C-10.52921875 6.0915625 -10.85921875 7.0815625 -11.19921875 8.1015625 C-10.46316406 8.26011719 -9.72710937 8.41867187 -8.96875 8.58203125 C1.40176286 11.06163868 1.40176286 11.06163868 4.80078125 16.1015625 C5.42578125 19.1015625 5.42578125 19.1015625 4.80078125 22.1015625 C2.62814625 24.67441974 0.82084287 26.59153169 -2.19921875 28.1015625 C-7.49371247 28.44874242 -10.94585319 28.62577968 -15.19921875 25.1015625 C-18.19921875 20.86018319 -18.19921875 20.86018319 -18.19921875 18.1015625 C-16.21921875 17.7715625 -14.23921875 17.4415625 -12.19921875 17.1015625 C-11.97234375 17.7409375 -11.74546875 18.3803125 -11.51171875 19.0390625 C-10.3604543 21.34033208 -10.3604543 21.34033208 -7.76171875 21.8515625 C-5.13069247 22.15011248 -5.13069247 22.15011248 -2.19921875 22.1015625 C-2.52921875 20.4515625 -2.85921875 18.8015625 -3.19921875 17.1015625 C-4.21242187 16.86373047 -4.21242187 16.86373047 -5.24609375 16.62109375 C-9.42822296 15.52721313 -12.53704483 14.65594066 -15.88671875 11.8515625 C-17.68041153 8.09334905 -17.44077817 6.04533948 -16.19921875 2.1015625 C-12.00397127 -1.9625835 -5.27286125 -2.15409962 0 0 Z " fill="#1A161A" transform="translate(169.19921875,359.8984375)"/>
<path d="M0 0 C6.6 0 13.2 0 20 0 C20 1.98 20 3.96 20 6 C15.05 6 10.1 6 5 6 C5 7.65 5 9.3 5 11 C9.62 11 14.24 11 19 11 C19 12.65 19 14.3 19 16 C14.38 16 9.76 16 5 16 C5 18.31 5 20.62 5 23 C10.28 23 15.56 23 21 23 C21 24.65 21 26.3 21 28 C14.07 28 7.14 28 0 28 C0 18.76 0 9.52 0 0 Z " fill="#1A171B" transform="translate(100,359)"/>
<path d="M0 0 C1.98 0 3.96 0 6 0 C10.07643506 9.21750608 13.72604972 18.46787927 17 28 C14.69 28 12.38 28 10 28 C9.34 26.35 8.68 24.7 8 23 C4.7 23 1.4 23 -2 23 C-2.99 25.475 -2.99 25.475 -4 28 C-6.31 28 -8.62 28 -11 28 C-7.52148365 18.58051242 -3.95207137 9.23315789 0 0 Z M2 9 C0.74335022 11.90600261 0 13.79604584 0 17 C1.98 17 3.96 17 6 17 C5.40138258 14.64828869 4.73075648 12.3140622 4 10 C3.34 9.67 2.68 9.34 2 9 Z " fill="#19161A" transform="translate(570,359)"/>
<path d="M0 0 C2.31 0 4.62 0 7 0 C8.6750644 4.10078931 10.33860345 8.20615636 12 12.3125 C12.47695313 13.47974609 12.95390625 14.64699219 13.4453125 15.84960938 C13.89648438 16.96787109 14.34765625 18.08613281 14.8125 19.23828125 C15.23144531 20.26993408 15.65039062 21.30158691 16.08203125 22.36450195 C17 25 17 25 17 28 C15.02 28 13.04 28 11 28 C10.34 26.02 9.68 24.04 9 22 C5.37 22 1.74 22 -2 22 C-2.66 23.98 -3.32 25.96 -4 28 C-5.98 28 -7.96 28 -10 28 C-7.46277869 18.38272302 -3.66846291 9.22643548 0 0 Z M3 8 C2.01 10.97 1.02 13.94 0 17 C2.31 17 4.62 17 7 17 C6.01 14.03 5.02 11.06 4 8 C3.67 8 3.34 8 3 8 Z " fill="#19161A" transform="translate(887,359)"/>
<path d="M0 0 C2.31 0 4.62 0 7 0 C8.56878516 3.82599998 10.13530785 7.65291737 11.69970703 11.48071289 C12.23260844 12.78370397 12.76613573 14.08643926 13.30029297 15.38891602 C14.0664113 17.25730664 14.83011892 19.12668519 15.59375 20.99609375 C16.05458984 22.12200928 16.51542969 23.2479248 16.99023438 24.40795898 C18 27 18 27 18 28 C15.69 28 13.38 28 11 28 C10.34 26.35 9.68 24.7 9 23 C5.37 22.67 1.74 22.34 -2 22 C-2.66 23.98 -3.32 25.96 -4 28 C-5.98 28 -7.96 28 -10 28 C-7.91037654 21.59162763 -5.6602938 15.25546703 -3.3125 8.9375 C-2.99216797 8.07189453 -2.67183594 7.20628906 -2.34179688 6.31445312 C-1.56248716 4.20915373 -0.78187196 2.10434886 0 0 Z M3 8 C2.01 10.97 1.02 13.94 0 17 C2.31 17 4.62 17 7 17 C6.01 14.03 5.02 11.06 4 8 C3.67 8 3.34 8 3 8 Z " fill="#19161A" transform="translate(997,359)"/>
<path d="M0 0 C1.98 0 3.96 0 6 0 C17 23.09621993 17 23.09621993 17 28 C14.69 28 12.38 28 10 28 C9.67 26.02 9.34 24.04 9 22 C5.37 22.33 1.74 22.66 -2 23 C-2.99 25.475 -2.99 25.475 -4 28 C-5.98 28 -7.96 28 -10 28 C-9.36065929 24.28475286 -8.32252035 20.98212876 -6.93359375 17.48046875 C-6.3293457 15.9480957 -6.3293457 15.9480957 -5.71289062 14.38476562 C-5.29201172 13.32966797 -4.87113281 12.27457031 -4.4375 11.1875 C-4.01275391 10.11306641 -3.58800781 9.03863281 -3.15039062 7.93164062 C-2.10399344 5.28625448 -1.05374756 2.64246489 0 0 Z M3 9 C0.7986134 12.80427492 0.7986134 12.80427492 0 17 C1.98 17 3.96 17 6 17 C5.55296014 12.52116304 5.55296014 12.52116304 3 9 Z " fill="#19161A" transform="translate(224,359)"/>
<path d="M0 0 C1.98 0 3.96 0 6 0 C6.02505615 0.59538574 6.0501123 1.19077148 6.07592773 1.80419922 C6.19177494 4.49469136 6.31455196 7.1848234 6.4375 9.875 C6.47681641 10.81214844 6.51613281 11.74929688 6.55664062 12.71484375 C6.59853516 13.61074219 6.64042969 14.50664062 6.68359375 15.4296875 C6.72025146 16.25710449 6.75690918 17.08452148 6.79467773 17.93701172 C6.88238327 20.06179429 6.88238327 20.06179429 8 22 C10.9737344 23.09036928 11.88407501 23.03864166 15 22 C16.09315246 17.4161086 16.32282625 12.87488993 16.5625 8.1875 C16.60568359 7.39923828 16.64886719 6.61097656 16.69335938 5.79882812 C16.79878321 3.86605785 16.89983094 1.93304974 17 0 C18.65 0 20.3 0 22 0 C22.11618764 3.91641711 22.18724654 7.83239101 22.25 11.75 C22.28351562 12.86117188 22.31703125 13.97234375 22.3515625 15.1171875 C22.36445313 16.18710937 22.37734375 17.25703125 22.390625 18.359375 C22.41157227 19.34389648 22.43251953 20.32841797 22.45410156 21.34277344 C21.87475646 24.73287671 20.62786857 25.86080992 18 28 C14.547912 29.726044 10.78158433 29.35983934 7 29 C3.71416574 27.67168402 2.43294109 26.8900186 0.88330078 23.7043457 C-0.02580013 20.92100939 -0.23107975 18.83299984 -0.1953125 15.91796875 C-0.18886719 14.98662109 -0.18242188 14.05527344 -0.17578125 13.09570312 C-0.15902344 12.13599609 -0.14226563 11.17628906 -0.125 10.1875 C-0.11597656 9.20845703 -0.10695313 8.22941406 -0.09765625 7.22070312 C-0.07417182 4.81354939 -0.0413284 2.40690257 0 0 Z " fill="#19161A" transform="translate(8,359)"/>
<path d="M0 0 C14 0 14 0 20 3 C21.59251643 6.18503287 21.39129761 9.5332405 21 13 C19.25746655 16.23613354 18.52814056 16.82395315 15 18 C13.43881572 18.06740865 11.8749748 18.08514456 10.3125 18.0625 C8.889375 18.041875 7.46625 18.02125 6 18 C6 21.3 6 24.6 6 28 C4.02 28 2.04 28 0 28 C0 18.76 0 9.52 0 0 Z M6 6 C6 8.31 6 10.62 6 13 C10.7897321 13.23428313 10.7897321 13.23428313 15 11 C14.67 9.35 14.34 7.7 14 6 C11.36 6 8.72 6 6 6 Z " fill="#19161A" transform="translate(857,359)"/>
<path d="M0 0 C2.70709794 1.38387288 3.92197726 2.65556409 6 5 C6 6.32 6 7.64 6 9 C3.75 9.75 3.75 9.75 1 10 C0.360625 9.34 -0.27875 8.68 -0.9375 8 C-1.618125 7.34 -2.29875 6.68 -3 6 C-6.17037671 5.98629873 -6.17037671 5.98629873 -9 7 C-10.28642069 9.57284138 -10.24002723 11.56528953 -10.3125 14.4375 C-10.34988281 15.40558594 -10.38726563 16.37367188 -10.42578125 17.37109375 C-10.24071297 20.11889657 -10.24071297 20.11889657 -8.14453125 21.88671875 C-5.99261141 23.30048602 -5.99261141 23.30048602 -3.375 22.375 C-0.73365529 21.07948232 -0.73365529 21.07948232 1 18 C2.98 18.33 4.96 18.66 7 19 C4.84 25.36 4.84 25.36 1.375 28 C-3.04614174 29.30996792 -6.57603962 29.33045303 -11 28 C-15.12170059 24.9306485 -17.0312334 22.03758634 -18 17 C-18.08674483 10.97123462 -17.00608024 6.69283685 -13 2 C-8.80865858 -0.54819499 -4.78491507 -0.8181461 0 0 Z " fill="#1A161B" transform="translate(551,359)"/>
<path d="M0 0 C2.71385802 1.37619575 3.92057783 2.65398524 6 5 C6 6.32 6 7.64 6 9 C4.02 9.33 2.04 9.66 0 10 C-0.33 9.01 -0.66 8.02 -1 7 C-3.85078091 6.23283149 -3.85078091 6.23283149 -7 6 C-9.08130637 7.50715289 -9.85613218 8.71226437 -11 11 C-10.93915355 13.1505762 -10.93915355 13.1505762 -10.625 15.5 C-10.48964844 16.69109375 -10.48964844 16.69109375 -10.3515625 17.90625 C-10.09653096 20.05104576 -10.09653096 20.05104576 -9 22 C-6.73295895 23.104597 -6.73295895 23.104597 -4 23 C-3.175 22.175 -2.35 21.35 -1.5 20.5 C-0.675 19.675 0.15 18.85 1 18 C3.8125 18.1875 3.8125 18.1875 6 19 C5.67497202 21.92525181 5.14220891 23.78668664 3.5 26.25 C-0.15411998 28.80788399 -3.58535867 29.199272 -8 29 C-12.31543293 27.48160693 -14.57333644 25.82797632 -17 22 C-18.45321799 16.17737488 -18.43570277 10.53568812 -16 5 C-10.98034532 0.23132805 -6.8089265 -1.02647133 0 0 Z " fill="#19161A" transform="translate(373,359)"/>
<path d="M0 0 C2.31 0 4.62 0 7 0 C8.98 5.94 10.96 11.88 13 18 C15.40681178 12.02446731 17.76262045 6.04092479 20 0 C21.98 0 23.96 0 26 0 C25.34143875 6.12566497 23.07751787 11.64610934 20.9375 17.375 C20.56044922 18.39722656 20.18339844 19.41945313 19.79492188 20.47265625 C18.86799899 22.98356127 17.93623553 25.49255574 17 28 C14.69 28 12.38 28 10 28 C0 4.76595745 0 4.76595745 0 0 Z " fill="#19161A" transform="translate(71,359)"/>
<path d="M0 0 C6.27 0 12.54 0 19 0 C19 1.98 19 3.96 19 6 C14.71 6 10.42 6 6 6 C6 7.98 6 9.96 6 12 C9.63 12 13.26 12 17 12 C17 13.65 17 15.3 17 17 C13.37 17 9.74 17 6 17 C6 20.63 6 24.26 6 28 C4.02 28 2.04 28 0 28 C0 18.76 0 9.52 0 0 Z " fill="#1A171B" transform="translate(599,359)"/>
<path d="M0 0 C7.59 0 15.18 0 23 0 C23 1.98 23 3.96 23 6 C20.03 6 17.06 6 14 6 C14 13.26 14 20.52 14 28 C12.35 28 10.7 28 9 28 C9 20.74 9 13.48 9 6 C6.03 6 3.06 6 0 6 C0 4.02 0 2.04 0 0 Z " fill="#1A171A" transform="translate(305,359)"/>
<path d="M0 0 C1.98 0 3.96 0 6 0 C6 7.26 6 14.52 6 22 C10.62 22 15.24 22 20 22 C20 23.65 20 25.3 20 27 C13.4 27 6.8 27 0 27 C0 18.09 0 9.18 0 0 Z " fill="#19171B" transform="translate(441,360)"/>
<path d="M0 0 C1.98 0 3.96 0 6 0 C6 7.26 6 14.52 6 22 C10.29 22 14.58 22 19 22 C19 23.65 19 25.3 19 27 C12.73 27 6.46 27 0 27 C0 18.09 0 9.18 0 0 Z " fill="#1A171B" transform="translate(756,360)"/>
<path d="M0 0 C1.98 0 3.96 0 6 0 C6 9.24 6 18.48 6 28 C4.02 28 2.04 28 0 28 C0 18.76 0 9.52 0 0 Z " fill="#1A161A" transform="translate(524,359)"/>
<path d="M0 0 C1.98 0 3.96 0 6 0 C6 9.24 6 18.48 6 28 C4.02 28 2.04 28 0 28 C0 18.76 0 9.52 0 0 Z " fill="#19161A" transform="translate(178,359)"/>
<path d="M0 0 C1.98 0 3.96 0 6 0 C6 9.24 6 18.48 6 28 C4.02 28 2.04 28 0 28 C0 18.76 0 9.52 0 0 Z " fill="#19161A" transform="translate(63,359)"/>
<path d="M0 0 C1.98 0 3.96 0 6 0 C4.3125 3 4.3125 3 2 6 C-0.75 6.375 -0.75 6.375 -3 6 C-2.01 4.02 -1.02 2.04 0 0 Z " fill="#19161A" transform="translate(1000,352)"/>
<path d="M0 0 C2.31 0 4.62 0 7 0 C5.3125 3 5.3125 3 3 6 C0.25 6.375 0.25 6.375 -2 6 C-1.34 4.02 -0.68 2.04 0 0 Z " fill="#19161A" transform="translate(475,352)"/>
</svg>
